<svg xmlns="http://www.w3.org/2000/svg" xmlns:xlink="http://www.w3.org/1999/xlink" width="12" height="48" >
  <defs>
  <symbol id="a">
    <path d="M1 1c-.6 0-1 .5-1 1v7c0 .5.4 1 1 1h4v1H4v1h4v-1H7v-1h4c.6 0 1-.5 1-1V2c0-.5-.4-1-1-1zm0 1h10v7H1zm4 2v4h2V4zm3 1v3h2V5zM2 6v2h2V6z"/>
  </symbol>
  </defs>
  <use xlink:href="#a" x="0" y="0" fill="#81938a" />
  <use xlink:href="#a" x="0" y="12" fill="#fff" />
  <use xlink:href="#a" x="0" y="24" fill="#adbabe" />
  <use xlink:href="#a" x="0" y="36" fill="#64787e" />
</svg>
