<svg xmlns="http://www.w3.org/2000/svg" xmlns:xlink="http://www.w3.org/1999/xlink" width="12" height="48">
    <defs>
        <symbol id="a">
        <path d="M2.7 5l1.1-1.9c.2-.2.4-.3.7-.3.3 0 .5.2.6.4l1.9 3.7 1.7-2.9h3.2c.1-.2.1-.4.1-.6 0-1.9-1.4-3.4-3.2-3.4-1.2 0-2.3.7-2.8 1.8-.5-1.1-1.6-1.8-2.8-1.8-1.8 0-3.2 1.5-3.2 3.4 0 .6.1 1.1.4 1.6h2.3zM9.3 5l-1.6 2.8c-.2.3-.4.4-.7.4-.3 0-.5-.2-.7-.4l-1.8-3.8-1.2 2h-2.2c.5.7 2.8 3.4 3.3 4 .6.7 1.2 1 1.6 1 .4 0 1-.3 1.6-1 .6-.7 3.4-4.1 3.4-4.1.2-.2.4-.5.6-.9h-2.3z"/>
        </symbol>
    </defs>
    <use xlink:href="#a" x="0" y="0" fill="#81938a" />
    <use xlink:href="#a" x="0" y="12" fill="#fff" />
    <use xlink:href="#a" x="0" y="24" fill="#adbabe" />
    <use xlink:href="#a" x="0" y="36" fill="#64787e" />
</svg>
